<?xml version="1.0" encoding="UTF-8" standalone="no"?>
<svg
   version="1.1"
   preserveAspectRatio="none"
   x="0px"
   y="0px"
   width="210px"
   height="700px"
   viewBox="0 0 210 700"
   id="svg111"
   sodipodi:docname="bt-bonus.svg"
   inkscape:version="1.3.1 (91b66b0783, 2023-11-16)"
   xmlns:inkscape="http://www.inkscape.org/namespaces/inkscape"
   xmlns:sodipodi="http://sodipodi.sourceforge.net/DTD/sodipodi-0.dtd"
   xmlns:xlink="http://www.w3.org/1999/xlink"
   xmlns="http://www.w3.org/2000/svg"
   xmlns:svg="http://www.w3.org/2000/svg">
  <sodipodi:namedview
     id="namedview111"
     pagecolor="#ffffff"
     bordercolor="#000000"
     borderopacity="0.25"
     inkscape:showpageshadow="2"
     inkscape:pageopacity="0.0"
     inkscape:pagecheckerboard="0"
     inkscape:deskcolor="#d1d1d1"
     inkscape:zoom="4.6457143"
     inkscape:cx="37.884379"
     inkscape:cy="161.97724"
     inkscape:window-width="1920"
     inkscape:window-height="1009"
     inkscape:window-x="-8"
     inkscape:window-y="-8"
     inkscape:window-maximized="1"
     inkscape:current-layer="svg111" />
  <defs
     id="defs56">
    <g
       id="Layer0_0_FILL">
      <path
         fill="#FFFFFF"
         stroke="none"
         d=" M 48.8 29.95 Q 48.1 29.25 47.15 29.25 L 44.35 29.25 44.35 23.9 Q 44.35 20.5 41.65 17.75 38.8 14.85 34.9 14.85 30.95 14.85 28.1 17.75 25.4 20.5 25.4 23.9 L 25.4 29.25 22.8 29.25 Q 21.85 29.25 21.15 29.95 20.45 30.6 20.45 31.55 L 20.45 48.9 Q 20.45 49.85 21.15 50.5 21.85 51.2 22.8 51.2 L 47.15 51.2 Q 48.1 51.2 48.8 50.5 49.45 49.85 49.45 48.9 L 49.45 31.55 Q 49.45 30.6 48.8 29.95 M 40.9 23.9 L 40.9 29.25 28.9 29.25 28.9 23.9 Q 28.9 21.95 30.5 20.25 32.3 18.3 34.9 18.3 37.45 18.3 39.25 20.25 40.9 22 40.9 23.9 Z"
         id="path1" />
    </g>
    <g
       id="Layer0_1_FILL">
      <path
         fill="#000000"
         fill-opacity="0.00392156862745098"
         stroke="none"
         d=" M 44.5 71.85 L 44.5 1.85 -25.5 1.85 -25.5 71.85 44.5 71.85 Z"
         id="path2" />
    </g>
    <g
       id="Layer0_2_FILL">
      <path
         fill="#000000"
         fill-opacity="0.00392156862745098"
         stroke="none"
         d=" M 0 0 L 0 70 70 70 70 0 0 0 Z"
         id="path3" />
    </g>
    <g
       id="Layer0_3_FILL">
      <path
         fill="#FFFFFF"
         stroke="none"
         d=" M 56.7 35.75 Q 57.05 35.1 56.7 34.3 52.95 27.55 47.2 23.85 41.55 20.15 35.2 20.15 28.9 20.15 23.15 23.95 17.45 27.7 13.6 34.3 12.95 35.1 13.6 35.75 17.4 42.5 23.1 46.25 28.75 49.95 35.2 49.95 41.5 49.95 47.2 46.15 52.85 42.4 56.7 35.75 M 40.2 40.1 Q 38.1 42.2 35.2 42.2 32.2 42.2 30.1 40.1 28.1 38.05 28.1 35.1 28.1 32.2 30.2 30.1 32.3 28 35.2 28 38.1 28 40.2 30.1 42.2 32.1 42.2 35.1 42.2 38.05 40.2 40.1 Z"
         id="path4" />
    </g>
    <g
       id="Layer0_4_FILL">
      <path
         fill="#000000"
         fill-opacity="0.00392156862745098"
         stroke="none"
         d=" M 0 0 L 0 70 70 70 70 0 0 0 Z"
         id="path5" />
    </g>
    <g
       id="Layer0_5_FILL">
      <path
         fill="#FFFFFF"
         stroke="none"
         d=" M 56.7 35.75 Q 57.05 35.1 56.7 34.3 52.95 27.55 47.2 23.85 41.55 20.15 35.2 20.15 28.9 20.15 23.15 23.95 17.45 27.7 13.6 34.3 12.95 35.1 13.6 35.75 17.4 42.5 23.1 46.25 28.75 49.95 35.2 49.95 41.5 49.95 47.2 46.15 52.85 42.4 56.7 35.75 M 40.2 40.1 Q 38.1 42.2 35.2 42.2 32.2 42.2 30.1 40.1 28.1 38.05 28.1 35.1 28.1 32.2 30.2 30.1 32.3 28 35.2 28 38.1 28 40.2 30.1 42.2 32.1 42.2 35.1 42.2 38.05 40.2 40.1 Z"
         id="path6" />
    </g>
    <g
       id="Layer0_6_FILL">
      <path
         fill="#000000"
         fill-opacity="0.00392156862745098"
         stroke="none"
         d=" M 0 0 L 0 70 70 70 70 0 0 0 Z"
         id="path7" />
    </g>
    <g
       id="Layer0_7_FILL">
      <path
         fill="#FFFFFF"
         stroke="none"
         d=" M 56.7 35.75 Q 57.05 35.1 56.7 34.3 52.95 27.55 47.2 23.85 41.55 20.15 35.2 20.15 28.9 20.15 23.15 23.95 17.45 27.7 13.6 34.3 12.95 35.1 13.6 35.75 17.4 42.5 23.1 46.25 28.75 49.95 35.2 49.95 41.5 49.95 47.2 46.15 52.85 42.4 56.7 35.75 M 40.2 40.1 Q 38.1 42.2 35.2 42.2 32.2 42.2 30.1 40.1 28.1 38.05 28.1 35.1 28.1 32.2 30.2 30.1 32.3 28 35.2 28 38.1 28 40.2 30.1 42.2 32.1 42.2 35.1 42.2 38.05 40.2 40.1 Z"
         id="path8" />
    </g>
    <g
       id="Layer0_8_FILL">
      <path
         fill="#000000"
         fill-opacity="0.00392156862745098"
         stroke="none"
         d=" M 0 0 L 0 70 70 70 70 0 0 0 Z"
         id="path9" />
    </g>
    <g
       id="Layer0_9_FILL">
      <path
         fill="#FFFFFF"
         stroke="none"
         d=" M 56.7 35.75 Q 57.05 35.1 56.7 34.3 52.95 27.55 47.2 23.85 41.55 20.15 35.2 20.15 28.9 20.15 23.15 23.95 17.45 27.7 13.6 34.3 12.95 35.1 13.6 35.75 17.4 42.5 23.1 46.25 28.75 49.95 35.2 49.95 41.5 49.95 47.2 46.15 52.85 42.4 56.7 35.75 M 40.2 40.1 Q 38.1 42.2 35.2 42.2 32.2 42.2 30.1 40.1 28.1 38.05 28.1 35.1 28.1 32.2 30.2 30.1 32.3 28 35.2 28 38.1 28 40.2 30.1 42.2 32.1 42.2 35.1 42.2 38.05 40.2 40.1 Z"
         id="path10" />
    </g>
    <g
       id="Layer0_10_FILL">
      <path
         fill="#000000"
         fill-opacity="0.00392156862745098"
         stroke="none"
         d=" M 0 0 L 0 70 70 70 70 0 0 0 Z"
         id="path11" />
    </g>
    <g
       id="Layer0_11_FILL">
      <path
         fill="#FFFFFF"
         stroke="none"
         d=" M 56.7 35.75 Q 57.05 35.1 56.7 34.3 52.95 27.55 47.2 23.85 41.55 20.15 35.2 20.15 28.9 20.15 23.15 23.95 17.45 27.7 13.6 34.3 12.95 35.1 13.6 35.75 17.4 42.5 23.1 46.25 28.75 49.95 35.2 49.95 41.5 49.95 47.2 46.15 52.85 42.4 56.7 35.75 M 40.2 40.1 Q 38.1 42.2 35.2 42.2 32.2 42.2 30.1 40.1 28.1 38.05 28.1 35.1 28.1 32.2 30.2 30.1 32.3 28 35.2 28 38.1 28 40.2 30.1 42.2 32.1 42.2 35.1 42.2 38.05 40.2 40.1 Z"
         id="path12" />
    </g>
    <g
       id="Layer0_12_FILL">
      <path
         fill="#000000"
         fill-opacity="0.00392156862745098"
         stroke="none"
         d=" M 0 0 L 0 70 70 70 70 0 0 0 Z"
         id="path13" />
    </g>
    <g
       id="Layer0_13_FILL">
      <path
         fill="#FFFFFF"
         stroke="none"
         d=" M 56.7 35.75 Q 57.05 35.1 56.7 34.3 52.95 27.55 47.2 23.85 41.55 20.15 35.2 20.15 28.9 20.15 23.15 23.95 17.45 27.7 13.6 34.3 12.95 35.1 13.6 35.75 17.4 42.5 23.1 46.25 28.75 49.95 35.2 49.95 41.5 49.95 47.2 46.15 52.85 42.4 56.7 35.75 M 40.2 40.1 Q 38.1 42.2 35.2 42.2 32.2 42.2 30.1 40.1 28.1 38.05 28.1 35.1 28.1 32.2 30.2 30.1 32.3 28 35.2 28 38.1 28 40.2 30.1 42.2 32.1 42.2 35.1 42.2 38.05 40.2 40.1 Z"
         id="path14" />
    </g>
    <g
       id="Layer0_14_FILL">
      <path
         fill="#000000"
         fill-opacity="0.00392156862745098"
         stroke="none"
         d=" M 0 0 L 0 70 70 70 70 0 0 0 Z"
         id="path15" />
    </g>
    <g
       id="Layer0_15_FILL">
      <path
         fill="#FFFFFF"
         stroke="none"
         d=" M 56.7 35.75 Q 57.05 35.1 56.7 34.3 52.95 27.55 47.2 23.85 41.55 20.15 35.2 20.15 28.9 20.15 23.15 23.95 17.45 27.7 13.6 34.3 12.95 35.1 13.6 35.75 17.4 42.5 23.1 46.25 28.75 49.95 35.2 49.95 41.5 49.95 47.2 46.15 52.85 42.4 56.7 35.75 M 40.2 40.1 Q 38.1 42.2 35.2 42.2 32.2 42.2 30.1 40.1 28.1 38.05 28.1 35.1 28.1 32.2 30.2 30.1 32.3 28 35.2 28 38.1 28 40.2 30.1 42.2 32.1 42.2 35.1 42.2 38.05 40.2 40.1 Z"
         id="path16" />
    </g>
    <g
       id="Layer0_16_FILL">
      <path
         fill="#000000"
         fill-opacity="0.00392156862745098"
         stroke="none"
         d=" M 0 0 L 0 70 70 70 70 0 0 0 Z"
         id="path17" />
    </g>
    <g
       id="Layer0_17_FILL">
      <path
         fill="#FFFFFF"
         stroke="none"
         d=" M 56.7 35.75 Q 57.05 35.1 56.7 34.3 52.95 27.55 47.2 23.85 41.55 20.15 35.2 20.15 28.9 20.15 23.15 23.95 17.45 27.7 13.6 34.3 12.95 35.1 13.6 35.75 17.4 42.5 23.1 46.25 28.75 49.95 35.2 49.95 41.5 49.95 47.2 46.15 52.85 42.4 56.7 35.75 M 40.2 40.1 Q 38.1 42.2 35.2 42.2 32.2 42.2 30.1 40.1 28.1 38.05 28.1 35.1 28.1 32.2 30.2 30.1 32.3 28 35.2 28 38.1 28 40.2 30.1 42.2 32.1 42.2 35.1 42.2 38.05 40.2 40.1 Z"
         id="path18" />
    </g>
    <g
       id="Layer0_18_FILL">
      <path
         fill="#000000"
         fill-opacity="0.00392156862745098"
         stroke="none"
         d=" M 0 0 L 0 70 70 70 70 0 0 0 Z"
         id="path19" />
    </g>
    <g
       id="Layer0_19_FILL">
      <path
         fill="#FFFFFF"
         stroke="none"
         d=" M 56.7 35.75 Q 57.05 35.1 56.7 34.3 52.95 27.55 47.2 23.85 41.55 20.15 35.2 20.15 28.9 20.15 23.15 23.95 17.45 27.7 13.6 34.3 12.95 35.1 13.6 35.75 17.4 42.5 23.1 46.25 28.75 49.95 35.2 49.95 41.5 49.95 47.2 46.15 52.85 42.4 56.7 35.75 M 40.2 40.1 Q 38.1 42.2 35.2 42.2 32.2 42.2 30.1 40.1 28.1 38.05 28.1 35.1 28.1 32.2 30.2 30.1 32.3 28 35.2 28 38.1 28 40.2 30.1 42.2 32.1 42.2 35.1 42.2 38.05 40.2 40.1 Z"
         id="path20" />
    </g>
    <g
       id="Layer0_20_FILL">
      <path
         fill="#000000"
         fill-opacity="0.00392156862745098"
         stroke="none"
         d=" M 0 0 L 0 70 70 70 70 0 0 0 Z"
         id="path21" />
    </g>
    <g
       id="Layer0_21_FILL">
      <path
         fill="#FFFFFF"
         stroke="none"
         d=" M 56.7 35.75 Q 57.05 35.1 56.7 34.3 52.95 27.55 47.2 23.85 41.55 20.15 35.2 20.15 28.9 20.15 23.15 23.95 17.45 27.7 13.6 34.3 12.95 35.1 13.6 35.75 17.4 42.5 23.1 46.25 28.75 49.95 35.2 49.95 41.5 49.95 47.2 46.15 52.85 42.4 56.7 35.75 M 40.2 40.1 Q 38.1 42.2 35.2 42.2 32.2 42.2 30.1 40.1 28.1 38.05 28.1 35.1 28.1 32.2 30.2 30.1 32.3 28 35.2 28 38.1 28 40.2 30.1 42.2 32.1 42.2 35.1 42.2 38.05 40.2 40.1 Z"
         id="path22" />
    </g>
    <g
       id="Layer0_22_FILL">
      <path
         fill="#000000"
         fill-opacity="0.00392156862745098"
         stroke="none"
         d=" M 0 0 L 0 70 70 70 70 0 0 0 Z"
         id="path23" />
    </g>
    <g
       id="Layer0_23_FILL">
      <path
         fill="#FFFFFF"
         stroke="none"
         d=" M 56.7 35.75 Q 57.05 35.1 56.7 34.3 52.95 27.55 47.2 23.85 41.55 20.15 35.2 20.15 28.9 20.15 23.15 23.95 17.45 27.7 13.6 34.3 12.95 35.1 13.6 35.75 17.4 42.5 23.1 46.25 28.75 49.95 35.2 49.95 41.5 49.95 47.2 46.15 52.85 42.4 56.7 35.75 M 40.2 40.1 Q 38.1 42.2 35.2 42.2 32.2 42.2 30.1 40.1 28.1 38.05 28.1 35.1 28.1 32.2 30.2 30.1 32.3 28 35.2 28 38.1 28 40.2 30.1 42.2 32.1 42.2 35.1 42.2 38.05 40.2 40.1 Z"
         id="path24" />
    </g>
    <g
       id="Layer0_24_FILL">
      <path
         fill="#000000"
         fill-opacity="0.00392156862745098"
         stroke="none"
         d=" M 0 0 L 0 70 70 70 70 0 0 0 Z"
         id="path25" />
    </g>
    <g
       id="Layer0_25_FILL">
      <path
         fill="#FFFFFF"
         stroke="none"
         d=" M 56.7 35.75 Q 57.05 35.1 56.7 34.3 52.95 27.55 47.2 23.85 41.55 20.15 35.2 20.15 28.9 20.15 23.15 23.95 17.45 27.7 13.6 34.3 12.95 35.1 13.6 35.75 17.4 42.5 23.1 46.25 28.75 49.95 35.2 49.95 41.5 49.95 47.2 46.15 52.85 42.4 56.7 35.75 M 40.2 40.1 Q 38.1 42.2 35.2 42.2 32.2 42.2 30.1 40.1 28.1 38.05 28.1 35.1 28.1 32.2 30.2 30.1 32.3 28 35.2 28 38.1 28 40.2 30.1 42.2 32.1 42.2 35.1 42.2 38.05 40.2 40.1 Z"
         id="path26" />
    </g>
    <g
       id="Layer0_26_FILL">
      <path
         fill="#000000"
         fill-opacity="0.00392156862745098"
         stroke="none"
         d=" M 0 0 L 0 70 70 70 70 0 0 0 Z"
         id="path27" />
    </g>
    <g
       id="Layer0_27_FILL">
      <path
         fill="#FFFFFF"
         stroke="none"
         d=" M 56.7 35.75 Q 57.05 35.1 56.7 34.3 52.95 27.55 47.2 23.85 41.55 20.15 35.2 20.15 28.9 20.15 23.15 23.95 17.45 27.7 13.6 34.3 12.95 35.1 13.6 35.75 17.4 42.5 23.1 46.25 28.75 49.95 35.2 49.95 41.5 49.95 47.2 46.15 52.85 42.4 56.7 35.75 M 40.2 40.1 Q 38.1 42.2 35.2 42.2 32.2 42.2 30.1 40.1 28.1 38.05 28.1 35.1 28.1 32.2 30.2 30.1 32.3 28 35.2 28 38.1 28 40.2 30.1 42.2 32.1 42.2 35.1 42.2 38.05 40.2 40.1 Z"
         id="path28" />
    </g>
    <g
       id="Layer0_28_FILL">
      <path
         fill="#000000"
         fill-opacity="0.00392156862745098"
         stroke="none"
         d=" M 0 0 L 0 70 70 70 70 0 0 0 Z"
         id="path29" />
    </g>
    <g
       id="Layer0_29_FILL">
      <path
         fill="#FFFFFF"
         stroke="none"
         d=" M 56.7 35.75 Q 57.05 35.1 56.7 34.3 52.95 27.55 47.2 23.85 41.55 20.15 35.2 20.15 28.9 20.15 23.15 23.95 17.45 27.7 13.6 34.3 12.95 35.1 13.6 35.75 17.4 42.5 23.1 46.25 28.75 49.95 35.2 49.95 41.5 49.95 47.2 46.15 52.85 42.4 56.7 35.75 M 40.2 40.1 Q 38.1 42.2 35.2 42.2 32.2 42.2 30.1 40.1 28.1 38.05 28.1 35.1 28.1 32.2 30.2 30.1 32.3 28 35.2 28 38.1 28 40.2 30.1 42.2 32.1 42.2 35.1 42.2 38.05 40.2 40.1 Z"
         id="path30" />
    </g>
    <g
       id="Layer0_30_FILL">
      <path
         fill="#000000"
         fill-opacity="0.00392156862745098"
         stroke="none"
         d=" M 0 0 L 0 70 70 70 70 0 0 0 Z"
         id="path31" />
    </g>
    <g
       id="Layer0_31_FILL">
      <path
         fill="#FFFFFF"
         stroke="none"
         d=" M 56.7 35.75 Q 57.05 35.1 56.7 34.3 52.95 27.55 47.2 23.85 41.55 20.15 35.2 20.15 28.9 20.15 23.15 23.95 17.45 27.7 13.6 34.3 12.95 35.1 13.6 35.75 17.4 42.5 23.1 46.25 28.75 49.95 35.2 49.95 41.5 49.95 47.2 46.15 52.85 42.4 56.7 35.75 M 40.2 40.1 Q 38.1 42.2 35.2 42.2 32.2 42.2 30.1 40.1 28.1 38.05 28.1 35.1 28.1 32.2 30.2 30.1 32.3 28 35.2 28 38.1 28 40.2 30.1 42.2 32.1 42.2 35.1 42.2 38.05 40.2 40.1 Z"
         id="path32" />
    </g>
    <g
       id="Layer0_32_FILL">
      <path
         fill="#000000"
         fill-opacity="0.00392156862745098"
         stroke="none"
         d=" M 0 0 L 0 70 70 70 70 0 0 0 Z"
         id="path33" />
    </g>
    <g
       id="Layer0_33_FILL">
      <path
         fill="#FFFFFF"
         stroke="none"
         d=" M 56.7 35.75 Q 57.05 35.1 56.7 34.3 52.95 27.55 47.2 23.85 41.55 20.15 35.2 20.15 28.9 20.15 23.15 23.95 17.45 27.7 13.6 34.3 12.95 35.1 13.6 35.75 17.4 42.5 23.1 46.25 28.75 49.95 35.2 49.95 41.5 49.95 47.2 46.15 52.85 42.4 56.7 35.75 M 40.2 40.1 Q 38.1 42.2 35.2 42.2 32.2 42.2 30.1 40.1 28.1 38.05 28.1 35.1 28.1 32.2 30.2 30.1 32.3 28 35.2 28 38.1 28 40.2 30.1 42.2 32.1 42.2 35.1 42.2 38.05 40.2 40.1 Z"
         id="path34" />
    </g>
    <g
       id="Layer0_34_FILL">
      <path
         fill="#000000"
         fill-opacity="0.00392156862745098"
         stroke="none"
         d=" M 0 0 L 0 70 70 70 70 0 0 0 Z"
         id="path35" />
    </g>
    <g
       id="Layer0_35_FILL">
      <path
         fill="#FFFFFF"
         stroke="none"
         d=" M 56.7 35.75 Q 57.05 35.1 56.7 34.3 52.95 27.55 47.2 23.85 41.55 20.15 35.2 20.15 28.9 20.15 23.15 23.95 17.45 27.7 13.6 34.3 12.95 35.1 13.6 35.75 17.4 42.5 23.1 46.25 28.75 49.95 35.2 49.95 41.5 49.95 47.2 46.15 52.85 42.4 56.7 35.75 M 40.2 40.1 Q 38.1 42.2 35.2 42.2 32.2 42.2 30.1 40.1 28.1 38.05 28.1 35.1 28.1 32.2 30.2 30.1 32.3 28 35.2 28 38.1 28 40.2 30.1 42.2 32.1 42.2 35.1 42.2 38.05 40.2 40.1 Z"
         id="path36" />
    </g>
    <g
       id="Layer0_36_FILL">
      <path
         fill="#000000"
         fill-opacity="0.00392156862745098"
         stroke="none"
         d=" M 0 0 L 0 70 70 70 70 0 0 0 Z"
         id="path37" />
    </g>
    <g
       id="Layer0_37_FILL">
      <path
         fill="#FFFFFF"
         stroke="none"
         d=" M 56.7 35.75 Q 57.05 35.1 56.7 34.3 52.95 27.55 47.2 23.85 41.55 20.15 35.2 20.15 28.9 20.15 23.15 23.95 17.45 27.7 13.6 34.3 12.95 35.1 13.6 35.75 17.4 42.5 23.1 46.25 28.75 49.95 35.2 49.95 41.5 49.95 47.2 46.15 52.85 42.4 56.7 35.75 M 40.2 40.1 Q 38.1 42.2 35.2 42.2 32.2 42.2 30.1 40.1 28.1 38.05 28.1 35.1 28.1 32.2 30.2 30.1 32.3 28 35.2 28 38.1 28 40.2 30.1 42.2 32.1 42.2 35.1 42.2 38.05 40.2 40.1 Z"
         id="path38" />
    </g>
    <g
       id="Layer0_38_FILL">
      <path
         fill="#000000"
         fill-opacity="0.00392156862745098"
         stroke="none"
         d=" M 0 0 L 0 70 70 70 70 0 0 0 Z"
         id="path39" />
    </g>
    <g
       id="Layer0_39_FILL">
      <path
         fill="#FFFFFF"
         stroke="none"
         d=" M 56.7 35.75 Q 57.05 35.1 56.7 34.3 52.95 27.55 47.2 23.85 41.55 20.15 35.2 20.15 28.9 20.15 23.15 23.95 17.45 27.7 13.6 34.3 12.95 35.1 13.6 35.75 17.4 42.5 23.1 46.25 28.75 49.95 35.2 49.95 41.5 49.95 47.2 46.15 52.85 42.4 56.7 35.75 M 40.2 40.1 Q 38.1 42.2 35.2 42.2 32.2 42.2 30.1 40.1 28.1 38.05 28.1 35.1 28.1 32.2 30.2 30.1 32.3 28 35.2 28 38.1 28 40.2 30.1 42.2 32.1 42.2 35.1 42.2 38.05 40.2 40.1 Z"
         id="path40" />
    </g>
    <g
       id="Layer0_40_FILL">
      <path
         fill="#000000"
         fill-opacity="0.00392156862745098"
         stroke="none"
         d=" M 0 0 L 0 70 70 70 70 0 0 0 Z"
         id="path41" />
    </g>
    <g
       id="Layer0_41_FILL">
      <path
         fill="#FFFFFF"
         stroke="none"
         d=" M 56.7 35.75 Q 57.05 35.1 56.7 34.3 52.95 27.55 47.2 23.85 41.55 20.15 35.2 20.15 28.9 20.15 23.15 23.95 17.45 27.7 13.6 34.3 12.95 35.1 13.6 35.75 17.4 42.5 23.1 46.25 28.75 49.95 35.2 49.95 41.5 49.95 47.2 46.15 52.85 42.4 56.7 35.75 M 40.2 40.1 Q 38.1 42.2 35.2 42.2 32.2 42.2 30.1 40.1 28.1 38.05 28.1 35.1 28.1 32.2 30.2 30.1 32.3 28 35.2 28 38.1 28 40.2 30.1 42.2 32.1 42.2 35.1 42.2 38.05 40.2 40.1 Z"
         id="path42" />
    </g>
    <g
       id="Layer0_42_FILL">
      <path
         fill="#000000"
         fill-opacity="0.00392156862745098"
         stroke="none"
         d=" M 0 0 L 0 70 70 70 70 0 0 0 Z"
         id="path43" />
    </g>
    <g
       id="Layer0_43_FILL">
      <path
         fill="#FFFFFF"
         stroke="none"
         d=" M 56.7 35.75 Q 57.05 35.1 56.7 34.3 52.95 27.55 47.2 23.85 41.55 20.15 35.2 20.15 28.9 20.15 23.15 23.95 17.45 27.7 13.6 34.3 12.95 35.1 13.6 35.75 17.4 42.5 23.1 46.25 28.75 49.95 35.2 49.95 41.5 49.95 47.2 46.15 52.85 42.4 56.7 35.75 M 40.2 40.1 Q 38.1 42.2 35.2 42.2 32.2 42.2 30.1 40.1 28.1 38.05 28.1 35.1 28.1 32.2 30.2 30.1 32.3 28 35.2 28 38.1 28 40.2 30.1 42.2 32.1 42.2 35.1 42.2 38.05 40.2 40.1 Z"
         id="path44" />
    </g>
    <g
       id="Layer0_44_FILL">
      <path
         fill="#000000"
         fill-opacity="0.00392156862745098"
         stroke="none"
         d=" M 0 0 L 0 70 70 70 70 0 0 0 Z"
         id="path45" />
    </g>
    <g
       id="Layer0_45_FILL">
      <path
         fill="#FFFFFF"
         stroke="none"
         d=" M 56.7 35.75 Q 57.05 35.1 56.7 34.3 52.95 27.55 47.2 23.85 41.55 20.15 35.2 20.15 28.9 20.15 23.15 23.95 17.45 27.7 13.6 34.3 12.95 35.1 13.6 35.75 17.4 42.5 23.1 46.25 28.75 49.95 35.2 49.95 41.5 49.95 47.2 46.15 52.85 42.4 56.7 35.75 M 40.2 40.1 Q 38.1 42.2 35.2 42.2 32.2 42.2 30.1 40.1 28.1 38.05 28.1 35.1 28.1 32.2 30.2 30.1 32.3 28 35.2 28 38.1 28 40.2 30.1 42.2 32.1 42.2 35.1 42.2 38.05 40.2 40.1 Z"
         id="path46" />
    </g>
    <g
       id="Layer0_46_FILL">
      <path
         fill="#000000"
         fill-opacity="0.00392156862745098"
         stroke="none"
         d=" M 0 0 L 0 70 70 70 70 0 0 0 Z"
         id="path47" />
    </g>
    <g
       id="Layer0_47_FILL">
      <path
         fill="#FFFFFF"
         stroke="none"
         d=" M 56.7 35.75 Q 57.05 35.1 56.7 34.3 52.95 27.55 47.2 23.85 41.55 20.15 35.2 20.15 28.9 20.15 23.15 23.95 17.45 27.7 13.6 34.3 12.95 35.1 13.6 35.75 17.4 42.5 23.1 46.25 28.75 49.95 35.2 49.95 41.5 49.95 47.2 46.15 52.85 42.4 56.7 35.75 M 40.2 40.1 Q 38.1 42.2 35.2 42.2 32.2 42.2 30.1 40.1 28.1 38.05 28.1 35.1 28.1 32.2 30.2 30.1 32.3 28 35.2 28 38.1 28 40.2 30.1 42.2 32.1 42.2 35.1 42.2 38.05 40.2 40.1 Z"
         id="path48" />
    </g>
    <g
       id="Layer0_48_FILL">
      <path
         fill="#000000"
         fill-opacity="0.00392156862745098"
         stroke="none"
         d=" M 0 0 L 0 70 70 70 70 0 0 0 Z"
         id="path49" />
    </g>
    <g
       id="Layer0_49_FILL">
      <path
         fill="#FFFFFF"
         stroke="none"
         d=" M 56.7 35.75 Q 57.05 35.1 56.7 34.3 52.95 27.55 47.2 23.85 41.55 20.15 35.2 20.15 28.9 20.15 23.15 23.95 17.45 27.7 13.6 34.3 12.95 35.1 13.6 35.75 17.4 42.5 23.1 46.25 28.75 49.95 35.2 49.95 41.5 49.95 47.2 46.15 52.85 42.4 56.7 35.75 M 40.2 40.1 Q 38.1 42.2 35.2 42.2 32.2 42.2 30.1 40.1 28.1 38.05 28.1 35.1 28.1 32.2 30.2 30.1 32.3 28 35.2 28 38.1 28 40.2 30.1 42.2 32.1 42.2 35.1 42.2 38.05 40.2 40.1 Z"
         id="path50" />
    </g>
    <g
       id="Layer0_50_FILL">
      <path
         fill="#000000"
         fill-opacity="0.00392156862745098"
         stroke="none"
         d=" M 0 0 L 0 70 70 70 70 0 0 0 Z"
         id="path51" />
    </g>
    <g
       id="Layer0_51_FILL">
      <path
         fill="#FFFFFF"
         stroke="none"
         d=" M 56.7 35.75 Q 57.05 35.1 56.7 34.3 52.95 27.55 47.2 23.85 41.55 20.15 35.2 20.15 28.9 20.15 23.15 23.95 17.45 27.7 13.6 34.3 12.95 35.1 13.6 35.75 17.4 42.5 23.1 46.25 28.75 49.95 35.2 49.95 41.5 49.95 47.2 46.15 52.85 42.4 56.7 35.75 M 40.2 40.1 Q 38.1 42.2 35.2 42.2 32.2 42.2 30.1 40.1 28.1 38.05 28.1 35.1 28.1 32.2 30.2 30.1 32.3 28 35.2 28 38.1 28 40.2 30.1 42.2 32.1 42.2 35.1 42.2 38.05 40.2 40.1 Z"
         id="path52" />
    </g>
    <g
       id="Layer0_52_FILL">
      <path
         fill="#000000"
         fill-opacity="0.00392156862745098"
         stroke="none"
         d=" M 0 0 L 0 70 70 70 70 0 0 0 Z"
         id="path53" />
    </g>
    <g
       id="Layer0_53_FILL">
      <path
         fill="#FFFFFF"
         stroke="none"
         d=" M 56.7 35.75 Q 57.05 35.1 56.7 34.3 52.95 27.55 47.2 23.85 41.55 20.15 35.2 20.15 28.9 20.15 23.15 23.95 17.45 27.7 13.6 34.3 12.95 35.1 13.6 35.75 17.4 42.5 23.1 46.25 28.75 49.95 35.2 49.95 41.5 49.95 47.2 46.15 52.85 42.4 56.7 35.75 M 40.2 40.1 Q 38.1 42.2 35.2 42.2 32.2 42.2 30.1 40.1 28.1 38.05 28.1 35.1 28.1 32.2 30.2 30.1 32.3 28 35.2 28 38.1 28 40.2 30.1 42.2 32.1 42.2 35.1 42.2 38.05 40.2 40.1 Z"
         id="path54" />
    </g>
    <g
       id="Layer0_54_FILL">
      <path
         fill="#000000"
         fill-opacity="0.00392156862745098"
         stroke="none"
         d=" M 0 0 L 0 70 70 70 70 0 0 0 Z"
         id="path55" />
    </g>
    <g
       id="Layer0_55_FILL">
      <path
         fill="#FFFFFF"
         stroke="none"
         d=" M 56.7 35.75 Q 57.05 35.1 56.7 34.3 52.95 27.55 47.2 23.85 41.55 20.15 35.2 20.15 28.9 20.15 23.15 23.95 17.45 27.7 13.6 34.3 12.95 35.1 13.6 35.75 17.4 42.5 23.1 46.25 28.75 49.95 35.2 49.95 41.5 49.95 47.2 46.15 52.85 42.4 56.7 35.75 M 40.2 40.1 Q 38.1 42.2 35.2 42.2 32.2 42.2 30.1 40.1 28.1 38.05 28.1 35.1 28.1 32.2 30.2 30.1 32.3 28 35.2 28 38.1 28 40.2 30.1 42.2 32.1 42.2 35.1 42.2 38.05 40.2 40.1 Z"
         id="path56" />
    </g>
  </defs>
  <g
     transform="matrix( 1, 0, 0, 1, 0,0) "
     id="g56">
    <use
       xlink:href="#Layer0_0_FILL"
       id="use56" />
  </g>
  <g
     transform="matrix( 1, 0, 0, 1, 25.5,-1.85) "
     id="g57">
    <use
       xlink:href="#Layer0_1_FILL"
       id="use57" />
  </g>
  <g
     transform="matrix( 1, 0, 0, 1, 0,70) "
     id="g58">
    <use
       xlink:href="#Layer0_2_FILL"
       id="use58" />
  </g>
  <g
     transform="matrix( 1, 0, 0, 1, 0,70) "
     id="g59">
    <use
       xlink:href="#Layer0_3_FILL"
       id="use59" />
  </g>
  <g
     transform="matrix( 1, 0, 0, 1, 70,70) "
     id="g60">
    <use
       xlink:href="#Layer0_4_FILL"
       id="use60" />
  </g>
  <g
     transform="matrix( 1, 0, 0, 1, 70,70) "
     id="g61">
    <use
       xlink:href="#Layer0_5_FILL"
       id="use61" />
  </g>
  <g
     transform="matrix( 1, 0, 0, 1, 140,70) "
     id="g62">
    <use
       xlink:href="#Layer0_6_FILL"
       id="use62" />
  </g>
  <g
     transform="matrix( 1, 0, 0, 1, 140,70) "
     id="g63">
    <use
       xlink:href="#Layer0_7_FILL"
       id="use63" />
  </g>
  <g
     transform="translate(0,140)"
     id="g65"
     style="display:inline;fill:#4d4d4d">
    <path
       id="path115"
       style="display:inline;fill:#ffffff;fill-rule:evenodd;stroke-width:1.03959"
       d="M 59.763938,32.322539 C 53.766303,24.231443 42.815833,12.045304 33.752565,16.267742 33.100778,16.571417 23.3018,9.5570993 22.514757,10.554441 c -0.749767,0.950105 -0.533388,13.578483 -0.533388,13.578483 -1.683167,4.618562 -7.426601,9.562542 -11.197483,14.348322 0,0 2.29672,6.344707 5.024112,6.62061 2.727393,0.275938 16.938278,-6.759914 16.938278,-6.759914 l 8.394905,21.361183 A 23.496256,23.496256 0 0 0 60.214844,36.635467 23.496256,23.496256 0 0 0 59.763938,32.322539 Z" />
    <use
       xlink:href="#Layer0_9_FILL"
       id="use65"
       style="display:none;fill:#666666" />
  </g>
  <g
     transform="matrix( 1, 0, 0, 1, 70,140) "
     id="g66">
    <use
       xlink:href="#Layer0_10_FILL"
       id="use66" />
  </g>
  <g
     transform="matrix( 1, 0, 0, 1, 140,140) "
     id="g68">
    <use
       xlink:href="#Layer0_12_FILL"
       id="use68" />
  </g>
  <g
     transform="matrix( 1, 0, 0, 1, 0,210) "
     id="g70">
    <use
       xlink:href="#Layer0_14_FILL"
       id="use70" />
  </g>
  <g
     transform="matrix( 1, 0, 0, 1, 0,210) "
     id="g71">
    <use
       xlink:href="#Layer0_15_FILL"
       id="use71" />
  </g>
  <g
     transform="matrix( 1, 0, 0, 1, 70,210) "
     id="g72">
    <use
       xlink:href="#Layer0_16_FILL"
       id="use72" />
  </g>
  <g
     transform="matrix( 1, 0, 0, 1, 70,210) "
     id="g73">
    <use
       xlink:href="#Layer0_17_FILL"
       id="use73" />
  </g>
  <g
     transform="matrix( 1, 0, 0, 1, 140,210) "
     id="g74">
    <use
       xlink:href="#Layer0_18_FILL"
       id="use74" />
  </g>
  <g
     transform="matrix( 1, 0, 0, 1, 140,210) "
     id="g75">
    <use
       xlink:href="#Layer0_19_FILL"
       id="use75" />
  </g>
  <g
     transform="matrix( 1, 0, 0, 1, 0,280) "
     id="g76">
    <use
       xlink:href="#Layer0_20_FILL"
       id="use76" />
  </g>
  <g
     transform="matrix( 1, 0, 0, 1, 0,280) "
     id="g77">
    <use
       xlink:href="#Layer0_21_FILL"
       id="use77" />
  </g>
  <g
     transform="matrix( 1, 0, 0, 1, 70,280) "
     id="g78">
    <use
       xlink:href="#Layer0_22_FILL"
       id="use78" />
  </g>
  <g
     transform="matrix( 1, 0, 0, 1, 70,280) "
     id="g79">
    <use
       xlink:href="#Layer0_23_FILL"
       id="use79" />
  </g>
  <g
     transform="matrix( 1, 0, 0, 1, 140,280) "
     id="g80">
    <use
       xlink:href="#Layer0_24_FILL"
       id="use80" />
  </g>
  <g
     transform="matrix( 1, 0, 0, 1, 140,280) "
     id="g81">
    <use
       xlink:href="#Layer0_25_FILL"
       id="use81" />
  </g>
  <g
     transform="matrix( 1, 0, 0, 1, 0,350) "
     id="g82">
    <use
       xlink:href="#Layer0_26_FILL"
       id="use82" />
  </g>
  <g
     transform="matrix( 1, 0, 0, 1, 0,350) "
     id="g83">
    <use
       xlink:href="#Layer0_27_FILL"
       id="use83" />
  </g>
  <g
     transform="matrix( 1, 0, 0, 1, 70,350) "
     id="g84">
    <use
       xlink:href="#Layer0_28_FILL"
       id="use84" />
  </g>
  <g
     transform="matrix( 1, 0, 0, 1, 70,350) "
     id="g85">
    <use
       xlink:href="#Layer0_29_FILL"
       id="use85" />
  </g>
  <g
     transform="matrix( 1, 0, 0, 1, 140,350) "
     id="g86">
    <use
       xlink:href="#Layer0_30_FILL"
       id="use86" />
  </g>
  <g
     transform="matrix( 1, 0, 0, 1, 140,350) "
     id="g87">
    <use
       xlink:href="#Layer0_31_FILL"
       id="use87" />
  </g>
  <g
     transform="matrix( 1, 0, 0, 1, 0,420) "
     id="g88">
    <use
       xlink:href="#Layer0_32_FILL"
       id="use88" />
  </g>
  <g
     transform="matrix( 1, 0, 0, 1, 0,420) "
     id="g89">
    <use
       xlink:href="#Layer0_33_FILL"
       id="use89" />
  </g>
  <g
     transform="matrix( 1, 0, 0, 1, 70,420) "
     id="g90">
    <use
       xlink:href="#Layer0_34_FILL"
       id="use90" />
  </g>
  <g
     transform="matrix( 1, 0, 0, 1, 70,420) "
     id="g91">
    <use
       xlink:href="#Layer0_35_FILL"
       id="use91" />
  </g>
  <g
     transform="matrix( 1, 0, 0, 1, 140,420) "
     id="g92">
    <use
       xlink:href="#Layer0_36_FILL"
       id="use92" />
  </g>
  <g
     transform="matrix( 1, 0, 0, 1, 140,420) "
     id="g93">
    <use
       xlink:href="#Layer0_37_FILL"
       id="use93" />
  </g>
  <g
     transform="matrix( 1, 0, 0, 1, 0,490) "
     id="g94">
    <use
       xlink:href="#Layer0_38_FILL"
       id="use94" />
  </g>
  <g
     transform="matrix( 1, 0, 0, 1, 0,490) "
     id="g95">
    <use
       xlink:href="#Layer0_39_FILL"
       id="use95" />
  </g>
  <g
     transform="matrix( 1, 0, 0, 1, 70,490) "
     id="g96">
    <use
       xlink:href="#Layer0_40_FILL"
       id="use96" />
  </g>
  <g
     transform="matrix( 1, 0, 0, 1, 70,490) "
     id="g97">
    <use
       xlink:href="#Layer0_41_FILL"
       id="use97" />
  </g>
  <g
     transform="matrix( 1, 0, 0, 1, 140,490) "
     id="g98">
    <use
       xlink:href="#Layer0_42_FILL"
       id="use98" />
  </g>
  <g
     transform="matrix( 1, 0, 0, 1, 140,490) "
     id="g99">
    <use
       xlink:href="#Layer0_43_FILL"
       id="use99" />
  </g>
  <g
     transform="matrix( 1, 0, 0, 1, 0,560) "
     id="g100">
    <use
       xlink:href="#Layer0_44_FILL"
       id="use100" />
  </g>
  <g
     transform="matrix( 1, 0, 0, 1, 0,560) "
     id="g101">
    <use
       xlink:href="#Layer0_45_FILL"
       id="use101" />
  </g>
  <g
     transform="matrix( 1, 0, 0, 1, 70,560) "
     id="g102">
    <use
       xlink:href="#Layer0_46_FILL"
       id="use102" />
  </g>
  <g
     transform="matrix( 1, 0, 0, 1, 70,560) "
     id="g103">
    <use
       xlink:href="#Layer0_47_FILL"
       id="use103" />
  </g>
  <g
     transform="matrix( 1, 0, 0, 1, 140,560) "
     id="g104">
    <use
       xlink:href="#Layer0_48_FILL"
       id="use104" />
  </g>
  <g
     transform="matrix( 1, 0, 0, 1, 140,560) "
     id="g105">
    <use
       xlink:href="#Layer0_49_FILL"
       id="use105" />
  </g>
  <g
     transform="matrix( 1, 0, 0, 1, 0,630) "
     id="g106">
    <use
       xlink:href="#Layer0_50_FILL"
       id="use106" />
  </g>
  <g
     transform="matrix( 1, 0, 0, 1, 0,630) "
     id="g107">
    <use
       xlink:href="#Layer0_51_FILL"
       id="use107" />
  </g>
  <g
     transform="matrix( 1, 0, 0, 1, 70,630) "
     id="g108">
    <use
       xlink:href="#Layer0_52_FILL"
       id="use108" />
  </g>
  <g
     transform="matrix( 1, 0, 0, 1, 70,630) "
     id="g109">
    <use
       xlink:href="#Layer0_53_FILL"
       id="use109" />
  </g>
  <g
     transform="matrix( 1, 0, 0, 1, 140,630) "
     id="g110">
    <use
       xlink:href="#Layer0_54_FILL"
       id="use110" />
  </g>
  <g
     transform="matrix( 1, 0, 0, 1, 140,630) "
     id="g111">
    <use
       xlink:href="#Layer0_55_FILL"
       id="use111" />
  </g>
</svg>
