<?xml version="1.0" encoding="UTF-8" standalone="no"?>
<svg
   viewBox="0 0 126 150"
   version="1.1"
   id="svg14"
   sodipodi:docname="switch-casque.svg"
   inkscape:version="1.3.1 (91b66b0783, 2023-11-16)"
   xmlns:inkscape="http://www.inkscape.org/namespaces/inkscape"
   xmlns:sodipodi="http://sodipodi.sourceforge.net/DTD/sodipodi-0.dtd"
   xmlns="http://www.w3.org/2000/svg"
   xmlns:svg="http://www.w3.org/2000/svg">
  <defs
     id="defs14" />
  <sodipodi:namedview
     id="namedview14"
     pagecolor="#ffffff"
     bordercolor="#000000"
     borderopacity="0.25"
     inkscape:showpageshadow="2"
     inkscape:pageopacity="0.0"
     inkscape:pagecheckerboard="0"
     inkscape:deskcolor="#d1d1d1"
     inkscape:zoom="1.9162594"
     inkscape:cx="-21.917701"
     inkscape:cy="47.227427"
     inkscape:window-width="1920"
     inkscape:window-height="1009"
     inkscape:window-x="-8"
     inkscape:window-y="-8"
     inkscape:window-maximized="1"
     inkscape:current-layer="svg14" />
  <g
     id="use1"
     transform="matrix(0.87234323,0,0,0.8698415,-6.4991392,-20.567657)">
    <path
       fill="#000000"
       stroke="none"
       d="m 92.691833,31.604793 -7.892341,-0.962481 -9.91355,0.529364 q -6.977985,-0.433116 -13.330357,1.491845 -5.823008,1.780588 -14.052217,6.641116 -6.208001,3.753674 -11.597892,10.731659 -2.791193,3.70555 -4.138665,6.256124 -1.973086,3.128062 -3.898047,8.999194 -3.994294,11.93476 -4.234915,26.083224 0,0.577488 -4.812404,5.293641 -4.860526,4.812401 -4.860526,5.245511 l 3.753674,-0.38499 q 3.128061,-0.52936 4.523659,-1.05872 -0.769985,15.35156 -7.844217,25.21699 -3.320558,4.8124 -6.0155043,6.59299 5.9192563,0.0962 10.0097993,-1.97308 2.213705,-1.05873 3.079937,-2.06933 -1.2031,3.75366 -7.603596,8.75857 l -5.2936442,3.99428 q 5.1973952,0.72187 10.4429152,-0.62561 4.860528,-1.29934 8.566077,-4.09053 1.684341,9.91354 4.475535,17.32465 3.898046,10.58728 9.336062,14.58158 0.529364,0.48124 0.384993,-1.49184 l -0.192496,-2.5987 2.839318,3.12806 q 3.368681,3.27243 7.459224,4.95677 l 7.411101,8.03671 q 6.400496,7.6036 10.779782,10.82792 4.52366,3.46492 8.662326,3.36867 3.70555,0 9.576682,-4.42741 l 7.266729,-6.30425 10.731655,-11.26102 q 4.09055,-1.78058 7.21861,-5.72675 2.16558,-3.27243 2.26182,-2.93557 0.1925,0.72186 -0.19249,2.83931 -0.52936,2.55057 -0.52936,3.51305 3.84992,-2.59869 6.64111,-6.64111 l 2.02121,-3.6093 1.3956,4.61991 q 2.69495,-4.3793 5.24552,-9.91355 5.34177,-11.35727 6.15988,-19.58648 0.86623,-9.14357 -0.24063,-15.44782 -1.49184,-6.30425 -2.0212,-11.30914 2.7912,4.09054 7.2186,6.97797 4.09055,2.74308 3.94618,1.39561 l -7.02611,-18.094639 q -2.50245,-7.411096 -3.22432,-16.025298 -1.87684,-12.127256 -2.88743,-16.169675 -1.63622,-6.208 -5.53427,-13.378481 -2.74308,-4.90865 -6.20801,-8.517953 -4.71615,-4.716155 -11.11665,-7.699844 -7.26672,-3.368683 -16.747157,-5.101147 z"
       id="path21"
       style="stroke-width:0.962482" />
  </g>
  <path
     d="m0 0h126v150h-126z"
     fill="none"
     opacity=".6"
     id="path6" />
  <path
     d="m94.73 44.18c-20.68 10.82-35.73 13.61-34.9 12.46s10.35-10.82 7.32-9a108.83 108.83 0 0 1 -38.66 13.81c-.95 11.81-.92 13.32-.32 19.92.53 5.95 2.61 8.54 3.16 11.74 1.24 7.19.51 15.17 1.49 21.2.65 10.4 5.79 15.25 5.79 15.25 3.18 3 2.47 2.28 6.48 7 7.33 8.66 12.1 12.44 17 12.41 5.14 0 12.23-7.19 14.71-9.41s5.36-5.53 9.4-9.8c0 0 3.06-2.67 4.71-15.48.94-6.09.49-13.23 3.52-21.53 3-8.14 2.71-11.46 2.71-11.46 1-8.54 1-29.48 1-29.48-.04-1.06.2-9.52-3.41-7.63z"
     fill="#d2d2d2"
     id="path7" />
  <path
     d="m 32.81,114.31 c -1,-6 -0.25,-14 -1.49,-21.2 -0.335999,-1.515191 -0.814805,-2.995137 -1.43,-4.42 v 3.63 c 0,2.28 -2.41,5.81 -5.39,5.81 -3.233199,-0.116331 -5.888654,-2.592766 -6.23,-5.81 V 92 h -1.5 c -2.009007,-0.04924 -2.424207,-1.581435 -2.634613,-3.58 L 12.89,81.36 H 9.82 C 6,91.5 -0.15,94.71 0.56,94.72 8.71,94.78 12,91.15 12,91.15 c -1.78,5.52 -12.18,11 -11.27,11.17 5.872838,0.82204 11.834822,-0.67742 16.62,-4.18 1.47,8.53 4.91,22.69 12.09,27.92 0.68,0.55 0.14,-2.81 0.14,-3.56 0.55,0.36 3.05,4.56 9,7.06 0.02,0 -5.12,-4.85 -5.77,-15.25 z"
     id="path12"
     sodipodi:nodetypes="cccsccccccccccccccc" />
  <path
     d="m109.79 92h-1.35v.3a6.27 6.27 0 0 1 -6.23 5.81c-3 0-5.39-3.53-5.39-5.81v-8a52.05 52.05 0 0 1 -2.42 8.5c-3 8.3-2.58 15.44-3.52 21.53-1.65 12.81-4.71 15.48-4.71 15.48 5.89-2.65 8.12-8.18 8.27-7.59.33 1.26-.61 3.47-.63 5.55a22 22 0 0 0 7.57-9c.52 1.23.55 2.86 1.21 4.1 0 0 8.9-14.46 10-25.8.25-2.64.36-4.81.37-6.66a4.06 4.06 0 0 1 -3.17 1.59z"
     id="path13" />
  <path
     d="m 98.1,51.84 c 0,0 0,4.35 -0.09,9.89 1.046311,-1.538334 2.76094,-2.48843 4.62,-2.56 3.86,0 5.81,2.38 5.81,5.48 V 65 h 2 l -1.17,-18.43 c -0.30713,-2.330039 -0.74786,-4.640511 -1.32,-6.92 C 104.36,28.85 98.46,21.69 92,17 81.61,9.43 69.76,8 63.28,7.87 56.8,8 45,9.43 34.62,17 c -6.51,4.74 -12.42,11.9 -16,22.65 -0.568176,2.283733 -1.008857,4.597308 -1.32,6.93 L 9.82,81.36 13.512694,84.89 18.28,64.7 c -0.161003,-3.094198 2.407402,-5.639253 5.5,-5.45 1.84274,-0.01973 3.587416,0.828533 4.71,2.29 13.652954,-2.140013 26.773391,-6.860791 38.66,-13.91 3,-1.81 -6.53,8 -7.32,9 -0.79,1 14.22,-1.63 34.9,-12.45 3.61,-1.89 3.37,6.57 3.37,7.66 z"
     id="path14"
     sodipodi:nodetypes="cccscccccccccccccccscc" />
  <g
     id="use3"
     transform="matrix(0.80329878,0,0,0.80329878,-3.5111277,-6.1851991)">
    <path
       fill="#1e217b"
       stroke="none"
       d="m 134.55,84.8 q -0.65,9.8 -2.7,12.85 -1.4,1.85 -3.05,2.85 -2.00156,1.55039 -4.15,11.25 -0.37422,1.80859 -0.8,3.9 -1.15938,6.12363 -2.4,14.65 -0.0576,0.68613 -0.15,1.35 0.15,6.1 4.5,7.25 3.35,0.8 5.45,-1.8 l 0.05,-0.05 5.6,-31.6 0.9,-20.85 -1.85,0.1 -1.4,0.1 M 33.75,97.65 Q 31.70332,94.624414 31.05,84.8 l -1.4,-0.1 -1.85,-0.15 0.9,20.9 5.55,31.55 q 0.05059,0.057 0.05,0.1 2.142773,2.58301 5.5,1.8 4.325,-1.13301 4.45,-7.25 0.01387,-0.0811 0,-0.15 -1.28418,-9.31426 -2.55,-15.85 -0.375195,-2.0916 -0.8,-3.9 -2.096289,-9.70312 -4.1,-11.25 -1.653125,-1.009375 -3.05,-2.85 z"
       id="path18" />
    <path
       fill="#b92d59"
       stroke="none"
       d="m 27.8,84.55 -2.55,-0.15 -0.7,-0.05 q 0.598242,9.135156 -2.9,16.6 L 21.6,101 20.15,96.95 q -0.64043,-1.446289 -1.95,-1 -1.255859,0.486719 -0.85,2.4 L 19.7,110 q 0.266406,7.84219 4.8,20.45 l 9.8,6.65 q 5.86e-4,-0.043 -0.05,-0.1 L 28.7,105.45 27.8,84.55 M 148.25,98.4 q 0.4,-1.95 -0.9,-2.4 -1.25,-0.5 -1.9,0.95 l -1.5,4.1 V 101 q -3.5,-7.5 -2.9,-16.65 l -0.7,0.05 -2.55,0.2 -0.9,20.85 -5.6,31.6 -0.05,0.05 9.85,-6.65 q 4.55,-12.6 4.75,-20.45 z"
       id="path19" />
    <path
       fill="#3a9cd5"
       stroke="none"
       d="m 82,27.55 q 20.31406,-0.356055 37.65,11.55 17.45,11.9 16.3,45.6 l 1.85,-0.1 2.55,-0.2 Q 140.45,55.75 129.7,42.65 112.81367,22.016797 82,23.05 H 81.95 Q 52.783789,22.016016 35.9,42.65 25.155273,55.768555 25.25,84.4 l 2.55,0.15 1.85,0.15 Q 28.5125,50.990625 45.9,39.05 63.264258,27.203906 81.85,27.55 q 0.075,-0.0016 0.15,0 z"
       id="path20" />
  </g>
</svg>
